<svg xmlns="http://www.w3.org/2000/svg"
  width="713"
  height="373"
  viewBox="0 0 713 373">
  <defs>
    <linearGradient id="prefix__a"
      x1="50%"
      x2="53.564%"
      y1="38.069%"
      y2="59.589%">
      <stop offset="0%"
        stop-color="#FFF"/>
      <stop offset="100%"/>
    </linearGradient>
    <linearGradient id="prefix__b"
      x1="49.857%"
      x2="40.492%"
      y1="43.846%"
      y2="57.494%">
      <stop offset="0%"
        stop-color="#00D749"/>
      <stop offset="100%"
        stop-color="#00D749"
        stop-opacity=".4"/>
    </linearGradient>
  </defs>
  <g fill="none"
    fill-rule="evenodd">
    <path fill-rule="nonzero"
      stroke="#FFF"
      stroke-width="1.5"
      d="M0 160c31.868 59.667 72.66 89.5 122.375 89.5 74.574 0 145.155-135 236.274-135S415.582 71 475.85 71c60.269 0 60.269 28 119.073 28C653.726 99 680.04.5 712 .5"
      transform="translate(1 1)"/>
    <path fill="url(#prefix__a)"
      fill-opacity=".24"
      fill-rule="nonzero"
      d="M712 365H0V161.5C31.868 221.167 72.66 251 122.375 251c74.574 0 143.036-135 236.274-135s56.933-43.5 117.201-43.5c60.269 0 60.269 28 119.073 28C653.726 100.5 680.04 2 712 2"
      transform="translate(1 1)"/>
    <path fill="url(#prefix__b)"
      fill-opacity=".18"
      fill-rule="nonzero"
      d="M712 372H0V231c35.814-40 75.916-60 120.306-60 66.585 0 66.585-52 118.036-52 51.452 0 51.074 120 116.145 120 65.07 0 65.07-89.5 120.684-89.5 55.613 0 62.423 59.5 118.793 59.5 56.37 0 54.478 30 118.036 30"
      transform="translate(1 1)"/>
    <path fill-rule="nonzero"
      stroke="#00D749"
      stroke-width="1.4"
      d="M0 232c35.814-40 75.916-60 120.306-60 66.585 0 66.585-52 118.036-52 51.452 0 51.074 120 116.145 120 65.07 0 65.07-89.5 120.684-89.5 55.613 0 62.423 59.5 118.793 59.5 56.37 0 54.478 30 118.036 30"
      transform="translate(1 1)"/>
    <g transform="translate(1 1) translate(164 48)">
      <path d="M0 0H141V93.356H0z"/>
      <circle cx="72"
        cy="72"
        r="8"
        fill="#00D749"/>
      <path fill="#00D749"
        fill-rule="nonzero"
        d="M42.629 24C35.654 24 30 29.654 30 36.629s5.654 12.63 12.629 12.63 12.629-5.655 12.629-12.63c0-6.974-5.654-12.628-12.63-12.628L42.63 24zm5.792 18.214c-.227.372-.712.49-1.083.262-2.965-1.812-6.698-2.222-11.094-1.217-.424.097-.846-.169-.943-.592-.097-.424.168-.846.593-.943 4.81-1.1 8.937-.626 12.266 1.408.37.228.488.712.26 1.083zm1.545-3.438c-.285.464-.891.609-1.354.324-3.394-2.086-8.57-2.69-12.584-1.471-.521.157-1.071-.136-1.23-.656-.156-.521.138-1.07.657-1.228 4.587-1.392 10.289-.718 14.187 1.678.463.285.61.891.324 1.353zm.133-3.58c-4.07-2.418-10.786-2.64-14.672-1.461-.624.19-1.284-.163-1.473-.787-.189-.624.163-1.284.788-1.474 4.46-1.354 11.876-1.092 16.563 1.69.56.333.745 1.058.412 1.618-.331.562-1.058.747-1.618.413zm14.26.463c-2.18-.52-2.568-.885-2.568-1.652 0-.725.682-1.212 1.696-1.212.983 0 1.958.37 2.98 1.132.031.023.07.033.108.027.038-.006.072-.027.095-.059l1.064-1.5c.044-.062.032-.148-.027-.195-1.216-.976-2.586-1.45-4.188-1.45-2.354 0-3.999 1.412-3.999 3.434 0 2.168 1.42 2.935 3.87 3.528 2.087.48 2.44.883 2.44 1.603 0 .798-.713 1.293-1.859 1.293-1.273 0-2.31-.428-3.472-1.434-.029-.025-.068-.036-.105-.034-.038.003-.074.02-.098.05l-1.194 1.421c-.05.059-.043.147.014.198 1.352 1.206 3.014 1.844 4.807 1.844 2.537 0 4.176-1.387 4.176-3.532.005-1.811-1.08-2.814-3.735-3.46l-.005-.002zm9.48-2.15c-1.1 0-2.002.432-2.745 1.32v-1c0-.078-.064-.142-.143-.142h-1.953c-.078 0-.142.064-.142.143v11.1c0 .078.064.143.142.143h1.953c.079 0 .143-.065.143-.143v-3.504c.744.835 1.646 1.243 2.745 1.243 2.043 0 4.112-1.573 4.112-4.58.003-3.008-2.066-4.58-4.11-4.58h-.002zm1.841 4.58c0 1.531-.943 2.6-2.293 2.6-1.335 0-2.342-1.117-2.342-2.6 0-1.482 1.007-2.6 2.342-2.6 1.328 0 2.294 1.093 2.294 2.6zm7.572-4.58c-2.631 0-4.693 2.025-4.693 4.613 0 2.559 2.048 4.564 4.661 4.564 2.64 0 4.709-2.02 4.709-4.597 0-2.568-2.054-4.58-4.677-4.58zm0 7.195c-1.4 0-2.454-1.125-2.454-2.616 0-1.497 1.018-2.584 2.422-2.584 1.409 0 2.471 1.125 2.471 2.617 0 1.497-1.025 2.583-2.438 2.583zm10.296-7.017h-2.149V31.49c0-.079-.063-.143-.142-.143h-1.952c-.08 0-.143.064-.143.143v2.197h-.94c-.078 0-.141.064-.141.143v1.678c0 .079.063.143.142.143h.939v4.342c0 1.755.873 2.644 2.595 2.644.7 0 1.282-.144 1.83-.455.044-.025.071-.073.071-.124V40.46c0-.05-.025-.096-.067-.121-.043-.027-.096-.028-.14-.007-.376.19-.74.277-1.146.277-.626 0-.906-.285-.906-.922v-4.035h2.149c.079 0 .142-.064.142-.143V33.83c.003-.08-.06-.143-.14-.143l-.002-.001zm7.486.008v-.27c0-.793.304-1.147.987-1.147.407 0 .734.08 1.1.203.045.014.092.007.129-.02.038-.027.059-.07.059-.116V30.7c0-.063-.04-.119-.101-.138-.387-.115-.882-.233-1.623-.233-1.803 0-2.757 1.016-2.757 2.936v.413h-.938c-.078 0-.143.065-.143.143v1.687c0 .079.065.143.143.143h.938v6.697c0 .08.064.143.143.143h1.952c.08 0 .143-.064.143-.143v-6.697h1.823l2.793 6.696c-.317.704-.629.843-1.055.843-.343 0-.706-.102-1.076-.305-.035-.02-.076-.022-.114-.01-.037.012-.068.04-.084.076l-.662 1.452c-.032.069-.005.15.062.185.69.374 1.314.534 2.085.534 1.441 0 2.238-.672 2.94-2.478l3.388-8.753c.017-.044.012-.094-.015-.133-.027-.039-.07-.062-.118-.062h-2.032c-.061 0-.115.039-.135.096l-2.083 5.947-2.28-5.951c-.021-.056-.074-.092-.134-.092h-3.335zm-4.34-.008H94.74c-.079 0-.143.064-.143.143v8.518c0 .08.064.143.143.143h1.953c.079 0 .143-.064.143-.143V33.83c0-.038-.015-.074-.042-.1-.027-.028-.063-.043-.101-.043zm-.965-3.879c-.774 0-1.401.626-1.401 1.4 0 .774.627 1.4 1.4 1.4.774 0 1.4-.626 1.4-1.4 0-.774-.626-1.4-1.399-1.4zm17.104 6.618c-.773 0-1.374-.621-1.374-1.375 0-.753.61-1.38 1.381-1.38.773 0 1.374.62 1.374 1.373s-.609 1.382-1.381 1.382zm.008-2.62c-.704 0-1.237.56-1.237 1.245s.53 1.237 1.23 1.237c.703 0 1.236-.559 1.236-1.244 0-.685-.529-1.237-1.229-1.237zm.304 1.379l.389.544h-.328l-.35-.5h-.3v.5h-.275v-1.442h.643c.336 0 .556.171.556.46.001.236-.136.38-.333.438h-.002zm-.232-.65h-.358v.455h.358c.179 0 .285-.087.285-.228 0-.148-.107-.228-.285-.228z"
        opacity=".9"/>
    </g>
    <g fill="#FFF"
      transform="translate(1 1) translate(435 28)">
      <circle cx="40"
        cy="42"
        r="8"/>
      <path fill-rule="nonzero"
        d="M13.607 10.386c-.026-1.546.643-2.75 2.004-3.61-.768-1.115-1.9-1.742-3.396-1.882-.533-.05-1.214.076-2.042.38-.89.33-1.392.494-1.503.494-.235 0-.687-.138-1.356-.418-.667-.278-1.237-.418-1.707-.418-.792.013-1.528.232-2.209.656-.68.424-1.224 1.004-1.632 1.738-.52.913-.78 2.002-.78 3.269 0 1.14.192 2.28.575 3.42.359 1.09.817 2.046 1.373 2.869.495.747.93 1.292 1.3 1.634.532.532 1.076.786 1.633.76.359-.013.829-.146 1.41-.4.544-.24 1.09-.36 1.634-.36.507 0 1.032.12 1.577.36.606.254 1.101.38 1.485.38.57-.024 1.1-.272 1.596-.74.173-.152.362-.361.566-.627.235-.31.461-.627.678-.95.18-.279.35-.564.51-.855.172-.313.324-.637.455-.97.061-.139.117-.281.167-.427l.148-.446c-.458-.202-.873-.488-1.244-.856-.815-.81-1.23-1.81-1.242-3.001zm13.458 3.387h-.09l-3.77-8.602h-2.96V19.05h2.58v-8.989h.12l3.15 7.138h1.809l3.14-7.138h.12v8.989h2.61V5.171h-2.94l-3.77 8.602zM11.268 3.356c.656-.824.984-1.71.984-2.66v-.19c0-.065-.006-.128-.019-.19-.458.024-.943.17-1.457.436-.513.266-.937.602-1.271 1.007-.668.799-1.003 1.653-1.003 2.566v.18c0 .057.007.117.019.18 1.027.102 1.943-.342 2.747-1.33zM63.92 5.17h2.9v13.88h-2.9V5.17zm11.656 2.206c1.72 0 2.63 1.322 2.63 2.746h2.78v-.295c0-2.684-2.05-4.92-5.43-4.92-3.62 0-5.779 2.378-5.779 6.435v1.566c0 4.056 2.14 6.406 5.769 6.406 3.47 0 5.44-2.268 5.44-4.79v-.304h-2.78c0 1.434-.89 2.623-2.61 2.623-1.76 0-2.88-1.25-2.88-3.925v-1.565c0-2.665 1.13-3.977 2.86-3.977zm-30.715 6.558c0 1.862-1.09 2.888-2.69 2.888-1.61 0-2.699-1.017-2.699-2.888V5.171h-2.88v9.171c0 2.96 2.1 4.973 5.58 4.973 3.469 0 5.578-2.013 5.578-4.973v-9.17h-2.89v8.763zm12.481-2.968l-2.069-.467c-1.22-.255-1.86-.794-1.86-1.598 0-1.067.87-1.738 2.27-1.738 1.58 0 2.37.905 2.44 1.881h2.7c-.03-2.45-2.08-4.159-5.13-4.159-2.889 0-5.169 1.516-5.169 4.24 0 2.36 1.6 3.457 3.52 3.875l2.05.477c1.379.315 2.079.773 2.079 1.718 0 1.079-.86 1.811-2.47 1.811-1.73 0-2.64-.915-2.719-1.943h-2.78c.041 1.963 1.34 4.25 5.36 4.25 3.379 0 5.469-1.677 5.469-4.403-.001-2.521-1.69-3.508-3.69-3.944z"/>
    </g>
  </g>
</svg>
